<svg width="100%" height="100%" viewBox="0 0 400 200" xmlns="http://www.w3.org/2000/svg" preserveAspectRatio="xMidYMid slice">
  <defs>
    <linearGradient id="grad2" x1="0%" y1="0%" x2="100%" y2="100%">
      <stop offset="0%" style="stop-color:#11998e;stop-opacity:1" />
      <stop offset="100%" style="stop-color:#38ef7d;stop-opacity:1" />
    </linearGradient>
  </defs>
  
  <!-- Background -->
  <rect width="400" height="200" fill="url(#grad2)"/>
  
  <!-- Ethereum Icon -->
  <polygon points="300,60 320,100 340,60 320,140 300,100" fill="rgba(255,255,255,0.15)"/>
  <text x="320" y="85" text-anchor="middle" fill="#627eea" font-size="35" font-weight="bold">⧫</text>
  
  <!-- Main Text -->
  <text x="30" y="60" fill="white" font-size="24" font-weight="bold" font-family="Arial, sans-serif">Invest in</text>
  <text x="30" y="90" fill="white" font-size="24" font-weight="bold" font-family="Arial, sans-serif">Ethereum</text>
  <text x="30" y="120" fill="rgba(255,255,255,0.8)" font-size="14" font-family="Arial, sans-serif">Next generation blockchain</text>
  
  <!-- CTA Button -->
  <rect x="30" y="140" width="90" height="35" rx="17" fill="rgba(255,255,255,0.2)" stroke="white" stroke-width="1"/>
  <text x="75" y="162" text-anchor="middle" fill="white" font-size="12" font-weight="bold">Buy ETH</text>
  
  <!-- Chart Lines -->
  <polyline points="250,160 260,150 270,155 280,145 290,140 300,135" 
            fill="none" stroke="rgba(255,255,255,0.4)" stroke-width="2"/>
  <polyline points="250,170 260,165 270,160 280,155 290,150 300,145" 
            fill="none" stroke="rgba(255,255,255,0.3)" stroke-width="1"/>
            
  <!-- Decorative Elements -->
  <circle cx="360" cy="170" r="2" fill="rgba(255,255,255,0.4)"/>
  <circle cx="375" cy="160" r="1.5" fill="rgba(255,255,255,0.6)"/>
  <circle cx="350" cy="180" r="1" fill="rgba(255,255,255,0.3)"/>
</svg>