<svg width="600" height="200" viewBox="0 0 600 200" xmlns="http://www.w3.org/2000/svg">
  <defs>
    <linearGradient id="bgGradient" x1="0%" y1="0%" x2="100%" y2="100%">
      <stop offset="0%" style="stop-color:#0f172a;stop-opacity:0.9" />
      <stop offset="50%" style="stop-color:#1e293b;stop-opacity:0.8" />
      <stop offset="100%" style="stop-color:#334155;stop-opacity:0.7" />
    </linearGradient>
    <linearGradient id="chartGradient" x1="0%" y1="100%" x2="100%" y2="0%">
      <stop offset="0%" style="stop-color:#22c55e;stop-opacity:0.1" />
      <stop offset="100%" style="stop-color:#22c55e;stop-opacity:0.4" />
    </linearGradient>
  </defs>
  
  <!-- Background -->
  <rect width="600" height="200" fill="url(#bgGradient)"/>
  
  <!-- Grid pattern -->
  <defs>
    <pattern id="grid" width="40" height="20" patternUnits="userSpaceOnUse">
      <path d="M 40 0 L 0 0 0 20" fill="none" stroke="#475569" stroke-width="0.5" opacity="0.3"/>
    </pattern>
  </defs>
  <rect width="600" height="200" fill="url(#grid)"/>
  
  <!-- Chart lines and area -->
  <g transform="translate(50, 30)">
    <!-- Main trend line -->
    <path d="M 0 140 Q 100 120 200 100 Q 300 80 400 60 Q 450 50 500 40" 
          stroke="#22c55e" 
          stroke-width="3" 
          fill="none"/>
    
    <!-- Area under curve -->
    <path d="M 0 140 Q 100 120 200 100 Q 300 80 400 60 Q 450 50 500 40 L 500 140 L 0 140 Z" 
          fill="url(#chartGradient)"/>
    
    <!-- Secondary trend line -->
    <path d="M 50 130 Q 150 110 250 95 Q 350 75 450 55" 
          stroke="#3b82f6" 
          stroke-width="2" 
          fill="none"
          opacity="0.6"/>
    
    <!-- Price points -->
    <circle cx="100" cy="120" r="3" fill="#22c55e"/>
    <circle cx="200" cy="100" r="3" fill="#22c55e"/>
    <circle cx="300" cy="80" r="3" fill="#22c55e"/>
    <circle cx="400" cy="60" r="3" fill="#22c55e"/>
    <circle cx="500" cy="40" r="3" fill="#22c55e"/>
  </g>
  
  <!-- Candlestick elements -->
  <g transform="translate(80, 50)" opacity="0.4">
    <rect x="0" y="60" width="4" height="20" fill="#22c55e"/>
    <rect x="20" y="70" width="4" height="15" fill="#ef4444"/>
    <rect x="40" y="50" width="4" height="25" fill="#22c55e"/>
    <rect x="60" y="65" width="4" height="18" fill="#22c55e"/>
    <rect x="80" y="45" width="4" height="30" fill="#ef4444"/>
  </g>
  
  <!-- Glow effects -->
  <defs>
    <filter id="glow">
      <feGaussianBlur stdDeviation="3" result="coloredBlur"/>
      <feMerge> 
        <feMergeNode in="coloredBlur"/>
        <feMergeNode in="SourceGraphic"/>
      </feMerge>
    </filter>
  </defs>
  
  <!-- Glowing trend arrow -->
  <g transform="translate(520, 65)" filter="url(#glow)">
    <path d="M 0 0 L 15 5 L 0 10 L 5 5 Z" fill="#22c55e"/>
  </g>
</svg>